<?xml version="1.0" encoding="UTF-8" standalone="no" ?>
<!DOCTYPE svg PUBLIC "-//W3C//DTD SVG 1.1//EN" "http://www.w3.org/Graphics/SVG/1.1/DTD/svg11.dtd">
<svg xmlns="http://www.w3.org/2000/svg" xmlns:xlink="http://www.w3.org/1999/xlink" version="1.1" width="469.7109375" height="177.012" xml:space="preserve">
<desc>Created with Fabric.js 1.6.0-rc.1</desc>
<defs></defs>
  <g transform="translate(220.38 141.3)">
   <text font-family="Grunja" font-size="40" font-weight="normal" style="stroke: none; stroke-width: 1; stroke-dasharray: none; stroke-linecap: butt; stroke-linejoin: miter; stroke-miterlimit: 10; fill: #e88a17; fill-rule: nonzero; opacity: 1;" ><tspan x="-46.88" y="8.98" style="stroke: none; stroke-width: 0; stroke-dasharray: none; stroke-linecap: butt; stroke-linejoin: miter; stroke-miterlimit: 4; fill: #e88a17; fill-rule: ; opacity: 1;">T</tspan><tspan x="-25.96" y="8.98" style="stroke: none; stroke-width: 0; stroke-dasharray: none; stroke-linecap: butt; stroke-linejoin: miter; stroke-miterlimit: 4; fill: #e88a17; fill-rule: ; opacity: 1;">e</tspan><tspan x="1.08" y="8.98" style="stroke: none; stroke-width: 0; stroke-dasharray: none; stroke-linecap: butt; stroke-linejoin: miter; stroke-miterlimit: 4; fill: #e88a17; fill-rule: ; opacity: 1;">c</tspan><tspan x="24.92" y="8.98" style="stroke: none; stroke-width: 0; stroke-dasharray: none; stroke-linecap: butt; stroke-linejoin: miter; stroke-miterlimit: 4; fill: #e88a17; fill-rule: ; opacity: 1;">h</tspan></text>
 </g>
<g style="stroke: none; stroke-width: 1; stroke-dasharray: none; stroke-linecap: butt; stroke-linejoin: miter; stroke-miterlimit: 10; fill: none; fill-rule: nonzero; opacity: 1;" transform="translate(61.00000000000001 58.199999999999996) scale(0.21 0.21)" >
  <path d="M 240.941 297.412 c 0 -10.398 8.425 -18.824 18.824 -18.824 h 48.678 c 4.984 0 9.781 1.988 13.312 5.512 l 26.616 26.616 c 3.524 3.531 8.32 5.519 13.304 5.519 H 448 c 10.398 0 18.824 8.425 18.824 18.824 V 448 c 0 10.398 -8.425 18.824 -18.824 18.824 H 259.765 c -10.398 0 -18.824 -8.425 -18.824 -18.824 V 297.412 z" style="stroke: none; stroke-width: 1; stroke-dasharray: none; stroke-linecap: butt; stroke-linejoin: miter; stroke-miterlimit: 10; fill: #e87817; fill-rule: nonzero; opacity: 1;" transform=" matrix(1 0 0 1 0 0) " stroke-linecap="round" />
  <path d="M 240.941 71.529 c 0 -10.398 8.425 -18.824 18.824 -18.824 h 48.678 c 4.984 0 9.781 1.988 13.312 5.512 l 26.616 26.616 c 3.524 3.531 8.32 5.519 13.304 5.519 H 448 c 10.398 0 18.824 8.425 18.824 18.824 v 112.941 c 0 10.398 -8.425 18.824 -18.824 18.824 H 259.765 c -10.398 0 -18.824 -8.425 -18.824 -18.824 V 71.529 z" style="stroke: none; stroke-width: 1; stroke-dasharray: none; stroke-linecap: butt; stroke-linejoin: miter; stroke-miterlimit: 10; fill: #e87817; fill-rule: nonzero; opacity: 1;" transform=" matrix(1 0 0 1 0 0) " stroke-linecap="round" />
  <circle cx="195.769" cy="135.529" r="15.059" style="stroke: none; stroke-width: 1; stroke-dasharray: none; stroke-linecap: butt; stroke-linejoin: miter; stroke-miterlimit: 10; fill: #FFFFFF; fill-rule: nonzero; opacity: 1;" transform="  matrix(1 0 0 1 0 0) "/>
  <circle cx="135.529" cy="135.529" r="15.059" style="stroke: none; stroke-width: 1; stroke-dasharray: none; stroke-linecap: butt; stroke-linejoin: miter; stroke-miterlimit: 10; fill: #FFFFFF; fill-rule: nonzero; opacity: 1;" transform="  matrix(1 0 0 1 0 0) "/>
  <circle cx="75.289" cy="135.529" r="15.059" style="stroke: none; stroke-width: 1; stroke-dasharray: none; stroke-linecap: butt; stroke-linejoin: miter; stroke-miterlimit: 10; fill: #FFFFFF; fill-rule: nonzero; opacity: 1;" transform="  matrix(1 0 0 1 0 0) "/>
  <circle cx="15.059" cy="135.529" r="15.059" style="stroke: none; stroke-width: 1; stroke-dasharray: none; stroke-linecap: butt; stroke-linejoin: miter; stroke-miterlimit: 10; fill: #FFFFFF; fill-rule: nonzero; opacity: 1;" transform="  matrix(1 0 0 1 0 0) "/>
  <circle cx="195.769" cy="376.46900000000005" r="15.059" style="stroke: none; stroke-width: 1; stroke-dasharray: none; stroke-linecap: butt; stroke-linejoin: miter; stroke-miterlimit: 10; fill: #FFFFFF; fill-rule: nonzero; opacity: 1;" transform="  matrix(1 0 0 1 0 0) "/>
  <circle cx="135.529" cy="376.46900000000005" r="15.059" style="stroke: none; stroke-width: 1; stroke-dasharray: none; stroke-linecap: butt; stroke-linejoin: miter; stroke-miterlimit: 10; fill: #FFFFFF; fill-rule: nonzero; opacity: 1;" transform="  matrix(1 0 0 1 0 0) "/>
  <circle cx="75.289" cy="376.46900000000005" r="15.059" style="stroke: none; stroke-width: 1; stroke-dasharray: none; stroke-linecap: butt; stroke-linejoin: miter; stroke-miterlimit: 10; fill: #FFFFFF; fill-rule: nonzero; opacity: 1;" transform="  matrix(1 0 0 1 0 0) "/>
  <circle cx="15.059" cy="376.46900000000005" r="15.059" style="stroke: none; stroke-width: 1; stroke-dasharray: none; stroke-linecap: butt; stroke-linejoin: miter; stroke-miterlimit: 10; fill: #FFFFFF; fill-rule: nonzero; opacity: 1;" transform="  matrix(1 0 0 1 0 0) "/>
  <circle cx="15.059" cy="316.23900000000003" r="15.059" style="stroke: none; stroke-width: 1; stroke-dasharray: none; stroke-linecap: butt; stroke-linejoin: miter; stroke-miterlimit: 10; fill: #FFFFFF; fill-rule: nonzero; opacity: 1;" transform="  matrix(1 0 0 1 0 0) "/>
  <circle cx="15.059" cy="255.999" r="15.059" style="stroke: none; stroke-width: 1; stroke-dasharray: none; stroke-linecap: butt; stroke-linejoin: miter; stroke-miterlimit: 10; fill: #FFFFFF; fill-rule: nonzero; opacity: 1;" transform="  matrix(1 0 0 1 0 0) "/>
  <circle cx="15.059" cy="195.769" r="15.059" style="stroke: none; stroke-width: 1; stroke-dasharray: none; stroke-linecap: butt; stroke-linejoin: miter; stroke-miterlimit: 10; fill: #FFFFFF; fill-rule: nonzero; opacity: 1;" transform="  matrix(1 0 0 1 0 0) "/>
  <circle cx="15.059" cy="75.289" r="15.059" style="stroke: none; stroke-width: 1; stroke-dasharray: none; stroke-linecap: butt; stroke-linejoin: miter; stroke-miterlimit: 10; fill: #FFFFFF; fill-rule: nonzero; opacity: 1;" transform="  matrix(1 0 0 1 0 0) "/>
  <circle cx="15.059" cy="15.059" r="15.059" style="stroke: none; stroke-width: 1; stroke-dasharray: none; stroke-linecap: butt; stroke-linejoin: miter; stroke-miterlimit: 10; fill: #FFFFFF; fill-rule: nonzero; opacity: 1;" transform="  matrix(1 0 0 1 0 0) "/>
  <path d="M 361.675 90.353 c -4.984 0 -9.781 -1.988 -13.312 -5.512 l -26.616 -26.616 c -3.524 -3.531 -8.32 -5.519 -13.304 -5.519 h -48.678 c -10.398 0 -18.824 8.425 -18.824 18.824 v 150.588 c 0 5.519 2.409 10.443 6.204 13.884 L 392.794 90.353 H 361.675 z" style="stroke: none; stroke-width: 1; stroke-dasharray: none; stroke-linecap: butt; stroke-linejoin: miter; stroke-miterlimit: 10; fill: #c3f4fa; fill-rule: nonzero; opacity: 1;" transform=" matrix(1 0 0 1 0 0) " stroke-linecap="round" />
  <path d="M 361.675 316.235 c -4.984 0 -9.781 -1.988 -13.312 -5.512 l -26.616 -26.616 c -3.524 -3.531 -8.32 -5.519 -13.304 -5.519 h -48.678 c -10.398 0 -18.824 8.425 -18.824 18.824 V 448 c 0 5.512 2.409 10.443 6.204 13.884 l 145.649 -145.649 H 361.675 z" style="stroke: none; stroke-width: 1; stroke-dasharray: none; stroke-linecap: butt; stroke-linejoin: miter; stroke-miterlimit: 10; fill: #c3f4fa; fill-rule: nonzero; opacity: 1;" transform=" matrix(1 0 0 1 0 0) " stroke-linecap="round" />
</g>
<g style="stroke: none; stroke-width: 1; stroke-dasharray: none; stroke-linecap: butt; stroke-linejoin: miter; stroke-miterlimit: 10; fill: none; fill-rule: nonzero; opacity: 1;" transform="translate(10.000000000000007 10) scale(3.87 4.18)" >
  <path d="M 16.141 27.205 h -3.51 c -0.581 0 -1.052 0.471 -1.052 1.052 v 0.539 c 0 0.581 0.471 1.052 1.052 1.052 h 3.51 c 0.581 0 1.052 -0.472 1.052 -1.052 v -0.539 C 17.193 27.676 16.722 27.205 16.141 27.205 z" style="stroke: none; stroke-width: 1; stroke-dasharray: none; stroke-linecap: butt; stroke-linejoin: miter; stroke-miterlimit: 10; fill: #e6a729; fill-rule: nonzero; opacity: 1;" transform=" matrix(1 0 0 1 0 0) " stroke-linecap="round" />
  <path d="M 14.608 12.714 h 3.316 h 0.004 h 3.317 c 1.078 0 1.953 -0.875 1.953 -1.954 V 8.221 c 0 -1.079 -0.875 -1.953 -1.953 -1.953 h -0.858 c -0.179 -0.33 -0.528 -0.555 -0.931 -0.555 h -0.625 c -0.066 -0.234 -0.282 -0.406 -0.539 -0.406 h -0.243 V 1.335 c 0.276 -0.088 0.476 -0.347 0.476 -0.652 C 18.524 0.307 18.22 0 17.842 0 s -0.684 0.307 -0.684 0.684 c 0 0.305 0.2 0.563 0.476 0.652 v 3.972 h -0.089 c -0.257 0 -0.473 0.172 -0.54 0.406 h -0.364 c -0.401 0 -0.751 0.225 -0.931 0.555 h -1.102 c -1.079 0 -1.953 0.874 -1.953 1.953 v 2.539 C 12.655 11.839 13.529 12.714 14.608 12.714 z M 19.881 8.693 c 0.495 0 0.896 0.401 0.896 0.896 s -0.4 0.896 -0.896 0.896 s -0.896 -0.401 -0.896 -0.896 S 19.386 8.693 19.881 8.693 z M 15.973 8.693 c 0.495 0 0.896 0.401 0.896 0.896 s -0.401 0.896 -0.896 0.896 s -0.896 -0.401 -0.896 -0.896 S 15.478 8.693 15.973 8.693 z" style="stroke: none; stroke-width: 1; stroke-dasharray: none; stroke-linecap: butt; stroke-linejoin: miter; stroke-miterlimit: 10; fill: #e6a729; fill-rule: nonzero; opacity: 1;" transform=" matrix(1 0 0 1 0 0) " stroke-linecap="round" />
  <path d="M 22.288 12.984 h -4.367 h -0.004 h -4.366 c -1.079 0 -1.953 0.874 -1.953 1.953 v 6.813 c 0 1.078 0.874 1.953 1.953 1.953 h 4.367 h 0.004 h 4.366 c 1.078 0 1.953 -0.875 1.953 -1.953 v -6.813 C 24.241 13.858 23.366 12.984 22.288 12.984 z M 14.26 14.602 h 7.317 c 0.461 0 0.834 0.373 0.834 0.833 v 2.074 h -1.424 L 20.61 16.76 c -0.019 -0.036 -0.059 -0.06 -0.098 -0.058 c -0.041 0 -0.077 0.024 -0.095 0.062 l -0.347 0.745 h -2.324 l -0.158 -0.311 c -0.019 -0.037 -0.057 -0.058 -0.098 -0.058 c -0.042 0.002 -0.078 0.027 -0.094 0.065 l -0.344 0.833 l -0.317 -1.385 c -0.011 -0.048 -0.054 -0.082 -0.103 -0.082 h -0.002 c -0.05 0 -0.093 0.035 -0.103 0.083 l -0.486 2.273 L 15.451 15.4 c -0.007 -0.047 -0.047 -0.084 -0.095 -0.088 c -0.049 -0.004 -0.093 0.025 -0.109 0.07 l -0.756 2.127 h -1.064 v -2.074 C 13.427 14.975 13.8 14.602 14.26 14.602 z M 14.066 22.355 c -0.353 0 -0.639 -0.287 -0.639 -0.64 s 0.286 -0.639 0.639 -0.639 s 0.639 0.287 0.639 0.639 C 14.705 22.068 14.418 22.355 14.066 22.355 z M 15.612 22.355 c -0.353 0 -0.639 -0.287 -0.639 -0.64 s 0.286 -0.639 0.639 -0.639 s 0.639 0.287 0.639 0.639 C 16.25 22.068 15.965 22.355 15.612 22.355 z M 21.577 20.309 H 14.26 c -0.46 0 -0.833 -0.373 -0.833 -0.834 V 17.72 h 1.139 c 0.045 0 0.085 -0.028 0.1 -0.07 l 0.644 -1.813 l 0.616 3.673 c 0.009 0.051 0.051 0.088 0.102 0.088 c 0.001 0 0.002 0 0.002 0 c 0.05 0 0.093 -0.035 0.104 -0.084 l 0.502 -2.348 l 0.285 1.243 c 0.01 0.045 0.048 0.077 0.095 0.082 c 0.045 0.004 0.089 -0.022 0.106 -0.065 l 0.384 -0.926 l 0.083 0.163 c 0.018 0.036 0.055 0.058 0.094 0.058 h 2.458 c 0.041 0 0.079 -0.023 0.097 -0.061 l 0.281 -0.608 l 0.309 0.611 c 0.018 0.036 0.055 0.058 0.095 0.058 h 1.489 v 1.753 C 22.411 19.936 22.038 20.309 21.577 20.309 z" style="stroke: none; stroke-width: 1; stroke-dasharray: none; stroke-linecap: butt; stroke-linejoin: miter; stroke-miterlimit: 10; fill: #e6a729; fill-rule: nonzero; opacity: 1;" transform=" matrix(1 0 0 1 0 0) " stroke-linecap="round" />
  <path d="M 9.641 13.06 c -0.854 0 -1.546 0.692 -1.546 1.547 v 7.474 c 0 0.854 0.692 1.546 1.546 1.546 s 1.547 -0.691 1.547 -1.546 v -7.474 C 11.188 13.752 10.495 13.06 9.641 13.06 z" style="stroke: none; stroke-width: 1; stroke-dasharray: none; stroke-linecap: butt; stroke-linejoin: miter; stroke-miterlimit: 10; fill: #e6a729; fill-rule: nonzero; opacity: 1;" transform=" matrix(1 0 0 1 0 0) " stroke-linecap="round" />
  <path d="M 26.163 13.06 c -0.854 0 -1.545 0.692 -1.545 1.547 v 7.474 c 0 0.854 0.691 1.546 1.545 1.546 c 0.854 0 1.547 -0.691 1.547 -1.546 v -7.474 C 27.71 13.752 27.018 13.06 26.163 13.06 z" style="stroke: none; stroke-width: 1; stroke-dasharray: none; stroke-linecap: butt; stroke-linejoin: miter; stroke-miterlimit: 10; fill: #e6a729; fill-rule: nonzero; opacity: 1;" transform=" matrix(1 0 0 1 0 0) " stroke-linecap="round" />
  <path d="M 14.349 30.197 c -1.548 0 -2.804 1.255 -2.804 2.803 c 0 1.549 1.255 2.805 2.804 2.805 c 1.549 0 2.804 -1.256 2.804 -2.805 C 17.153 31.452 15.898 30.197 14.349 30.197 z M 14.349 33.922 c -0.509 0 -0.922 -0.412 -0.922 -0.922 c 0 -0.509 0.413 -0.922 0.922 -0.922 c 0.509 0 0.923 0.413 0.923 0.922 C 15.271 33.51 14.859 33.922 14.349 33.922 z" style="stroke: none; stroke-width: 1; stroke-dasharray: none; stroke-linecap: butt; stroke-linejoin: miter; stroke-miterlimit: 10; fill: #e6a729; fill-rule: nonzero; opacity: 1;" transform=" matrix(1 0 0 1 0 0) " stroke-linecap="round" />
  <path d="M 16.141 24.127 h -3.51 c -0.581 0 -1.052 0.471 -1.052 1.053 v 0.539 c 0 0.581 0.471 1.051 1.052 1.051 h 3.51 c 0.581 0 1.052 -0.471 1.052 -1.051 V 25.18 C 17.193 24.598 16.722 24.127 16.141 24.127 z" style="stroke: none; stroke-width: 1; stroke-dasharray: none; stroke-linecap: butt; stroke-linejoin: miter; stroke-miterlimit: 10; fill: #e6a729; fill-rule: nonzero; opacity: 1;" transform=" matrix(1 0 0 1 0 0) " stroke-linecap="round" />
  <path d="M 23.168 27.205 h -3.511 c -0.58 0 -1.051 0.471 -1.051 1.052 v 0.539 c 0 0.581 0.471 1.052 1.051 1.052 h 3.511 c 0.581 0 1.052 -0.472 1.052 -1.052 v -0.539 C 24.22 27.676 23.749 27.205 23.168 27.205 z" style="stroke: none; stroke-width: 1; stroke-dasharray: none; stroke-linecap: butt; stroke-linejoin: miter; stroke-miterlimit: 10; fill: #e6a729; fill-rule: nonzero; opacity: 1;" transform=" matrix(1 0 0 1 0 0) " stroke-linecap="round" />
  <path d="M 21.376 30.197 c -1.549 0 -2.803 1.255 -2.803 2.803 c 0 1.549 1.254 2.805 2.803 2.805 S 24.18 34.549 24.18 33 C 24.18 31.452 22.925 30.197 21.376 30.197 z M 21.376 33.922 c -0.51 0 -0.922 -0.412 -0.922 -0.922 c 0 -0.509 0.412 -0.922 0.922 -0.922 s 0.922 0.413 0.922 0.922 C 22.299 33.51 21.886 33.922 21.376 33.922 z" style="stroke: none; stroke-width: 1; stroke-dasharray: none; stroke-linecap: butt; stroke-linejoin: miter; stroke-miterlimit: 10; fill: #e6a729; fill-rule: nonzero; opacity: 1;" transform=" matrix(1 0 0 1 0 0) " stroke-linecap="round" />
  <path d="M 23.168 24.127 h -3.511 c -0.58 0 -1.051 0.471 -1.051 1.053 v 0.539 c 0 0.581 0.471 1.051 1.051 1.051 h 3.511 c 0.581 0 1.052 -0.471 1.052 -1.051 V 25.18 C 24.22 24.598 23.749 24.127 23.168 24.127 z" style="stroke: none; stroke-width: 1; stroke-dasharray: none; stroke-linecap: butt; stroke-linejoin: miter; stroke-miterlimit: 10; fill: #e6a729; fill-rule: nonzero; opacity: 1;" transform=" matrix(1 0 0 1 0 0) " stroke-linecap="round" />
</g>
  <g transform="translate(365.86 126.3)">
   <text font-family="Whoa!" font-size="40" font-weight="normal" style="stroke: none; stroke-width: 1; stroke-dasharray: none; stroke-linecap: butt; stroke-linejoin: miter; stroke-miterlimit: 10; fill: #54340a; fill-rule: nonzero; opacity: 1;" ><tspan x="-94.36" y="8.98" style="stroke: none; stroke-width: 0; stroke-dasharray: none; stroke-linecap: butt; stroke-linejoin: miter; stroke-miterlimit: 4; fill: #54340a; fill-rule: ; opacity: 1;">A</tspan><tspan x="-69.39" y="8.98" style="stroke: none; stroke-width: 0; stroke-dasharray: none; stroke-linecap: butt; stroke-linejoin: miter; stroke-miterlimit: 4; fill: #54340a; fill-rule: ; opacity: 1;">r</tspan><tspan x="-42.15" y="8.98" style="stroke: none; stroke-width: 0; stroke-dasharray: none; stroke-linecap: butt; stroke-linejoin: miter; stroke-miterlimit: 4; fill: #54340a; fill-rule: ; opacity: 1;">c</tspan><tspan x="-14.3" y="8.98" style="stroke: none; stroke-width: 0; stroke-dasharray: none; stroke-linecap: butt; stroke-linejoin: miter; stroke-miterlimit: 4; fill: #54340a; fill-rule: ; opacity: 1;">h</tspan><tspan x="13.69" y="8.98" style="stroke: none; stroke-width: 0; stroke-dasharray: none; stroke-linecap: butt; stroke-linejoin: miter; stroke-miterlimit: 4; fill: #54340a; fill-rule: ; opacity: 1;">i</tspan><tspan x="39.8" y="8.98" style="stroke: none; stroke-width: 0; stroke-dasharray: none; stroke-linecap: butt; stroke-linejoin: miter; stroke-miterlimit: 4; fill: #54340a; fill-rule: ; opacity: 1;">v</tspan><tspan x="65.33" y="8.98" style="stroke: none; stroke-width: 0; stroke-dasharray: none; stroke-linecap: butt; stroke-linejoin: miter; stroke-miterlimit: 4; fill: #54340a; fill-rule: ; opacity: 1;">e</tspan></text>
 </g>
</svg>